<svg xmlns="http://www.w3.org/2000/svg" width="1300" height="630"><rect width="1300" height="630" fill="#eef2f7"/><g font-family="sans-serif"><text x="32" y="40" font-size="22">合成状态卡片预览 · 离线示意，非飞书客户端截图</text><rect x="25" y="75" width="235" height="500" rx="10" fill="white"/><path d="M25 85 Q25 75 35 75 H250 Q260 75 260 85 V135 H25Z" fill="#2474ce"/><text x="39" y="112" font-size="21" fill="white">dot · 处理中</text><text x="37" y="165" font-size="14" fill="#263548">合成任务状态更新</text><rect x="280" y="75" width="235" height="500" rx="10" fill="white"/><path d="M280 85 Q280 75 290 75 H505 Q515 75 515 85 V135 H280Z" fill="#d88716"/><text x="294" y="112" font-size="21" fill="white">dot · 等待确认</text><text x="292" y="165" font-size="14" fill="#263548">候选已准备，等待发布确认</text><text x="292" y="200" font-size="14" fill="#263548">需要执行：检查并确认候选发布</text><text x="292" y="235" font-size="14" fill="#263548">原因：发布会影响外部服务</text><text x="292" y="270" font-size="14" fill="#263548">请打开 dot → Activity，</text><text x="292" y="293" font-size="14" fill="#263548">检查对应请求并在原处确认。</text><text x="292" y="316" font-size="14" fill="#263548">飞书点击只跳转，</text><text x="292" y="339" font-size="14" fill="#263548">不授予 dot 权限。</text><text x="292" y="362" font-size="14" fill="#263548">此状态由调用者提交。</text><rect x="292" y="420" width="210" height="44" rx="6" fill="#2474ce"/><text x="300" y="448" font-size="13" fill="white">打开 dot</text><rect x="535" y="75" width="235" height="500" rx="10" fill="white"/><path d="M535 85 Q535 75 545 75 H760 Q770 75 770 85 V135 H535Z" fill="#22874c"/><text x="549" y="112" font-size="21" fill="white">dot · 完成</text><text x="547" y="165" font-size="14" fill="#263548">合成任务状态更新</text><rect x="790" y="75" width="235" height="500" rx="10" fill="white"/><path d="M790 85 Q790 75 800 75 H1015 Q1025 75 1025 85 V135 H790Z" fill="#c84646"/><text x="804" y="112" font-size="21" fill="white">dot · 失败</text><text x="802" y="165" font-size="14" fill="#263548">合成任务状态更新</text><text x="802" y="200" font-size="14" fill="#263548">原因：合成测试遇到阻塞</text><rect x="1045" y="75" width="235" height="500" rx="10" fill="white"/><path d="M1045 85 Q1045 75 1055 75 H1270 Q1280 75 1280 85 V135 H1045Z" fill="#c84646"/><text x="1059" y="112" font-size="21" fill="white">dot · 阻塞</text><text x="1057" y="165" font-size="14" fill="#263548">合成任务状态更新</text><text x="1057" y="200" font-size="14" fill="#263548">原因：合成测试遇到阻塞</text></g></svg>